<svg height="512pt" viewBox="0 -76 512.00069 512" width="512pt" xmlns="http://www.w3.org/2000/svg"><g fill="#78cbec"><path d="m108.4375 219.035156-59.382812 12.332032c-18.667969 3.878906-36.945313-8.113282-40.820313-26.78125-3.878906-18.667969 8.109375-36.945313 26.78125-40.820313 4.722656-.984375 9.589844-.90625 14.039063 0l59.382812 12.332031c11.855469 2.460938 19.472656 14.070313 17.011719 25.925782-1.832031 8.8125-8.730469 15.28125-17.011719 17.011718zm0 0"/><path d="m141.421875 154.292969c-32.167969-2.304688-61.863281-13.75-87.867187-32.617188-15.359376-11.144531-18.777344-32.628906-7.632813-47.988281 13.617187-18.761719 42.675781-18.359375 55.976563.492188 10.753906 15.246093 24.808593 26.171874 41.316406 34.636718zm0 0"/><path d="m152.570312 282.03125c-10.195312 5.015625-20.453124 9.484375-29.425781 16.621094-8.113281 6.453125-15.226562 13.679687-21.246093 22.292968-10.867188 15.558594-32.289063 19.355469-47.84375 8.488282-15.558594-10.871094-19.355469-32.292969-8.484376-47.847656 4.285157-6.132813 10.695313-10.414063 16.855469-14.480469 22.054688-14.5625 48.023438-23.234375 74.277344-25.839844zm0 0"/><path d="m403.566406 219.035156 59.382813 12.332032c18.667969 3.878906 36.945312-8.113282 40.824219-26.78125 3.875-18.667969-8.113282-36.945313-26.785157-40.824219-4.722656-.980469-9.589843-.902344-14.039062 0l-59.382813 12.335937c-11.855468 2.460938-19.472656 14.070313-17.007812 25.925782 1.828125 8.8125 8.726562 15.28125 17.007812 17.011718zm0 0"/><path d="m370.582031 154.292969c32.171875-2.304688 61.867188-13.75 87.867188-32.617188 15.359375-11.144531 18.777343-32.628906 7.632812-47.988281-13.613281-18.761719-42.675781-18.359375-55.972656.492188-10.753906 15.246093-24.8125 26.171874-41.320313 34.636718zm0 0"/><path d="m359.433594 282.03125c10.199218 5.015625 20.457031 9.484375 29.429687 16.621094 8.113281 6.453125 15.222657 13.679687 21.242188 22.292968 10.871093 15.558594 32.289062 19.355469 47.847656 8.488282 15.554687-10.871094 19.351563-32.292969 8.484375-47.847656-4.285156-6.132813-10.695312-10.414063-16.855469-14.480469-22.054687-14.5625-48.027343-23.234375-74.28125-25.839844zm0 0"/></g><path d="m469.167969 163.078125c-2.125.050781-4.214844.277344-6.21875.6875l-59.382813 12.332031c-11.855468 2.460938-19.472656 14.070313-17.007812 25.925782 1.828125 8.8125 8.726562 15.28125 17.007812 17.011718l59.382813 12.332032c3.214843.667968 6.414062.855468 9.535156.628906.769531-7.367188 1.164063-14.992188 1.164063-22.886719 0-15.644531-1.527344-31.046875-4.480469-46.03125zm0 0" fill="#34b5e1"/><path d="m422.722656 63.433594c-4.875 2.394531-9.25 5.976562-12.613281 10.746094-10.753906 15.246093-24.8125 26.171874-41.320313 34.636718l1.792969 45.476563c31.683594-2.269531 60.957031-13.417969 86.675781-31.777344-8.441406-21.265625-20.042968-41.164063-34.535156-59.082031zm0 0" fill="#34b5e1"/><path d="m449.582031 267.105469c-22.054687-14.566407-48.027343-23.234375-74.28125-25.84375l-15.867187 40.769531c10.199218 5.015625 20.457031 9.484375 29.429687 16.621094 8.113281 6.453125 15.222657 13.679687 21.242188 22.292968 3.203125 4.585938 7.328125 8.140626 11.945312 10.609376 17.980469-14.921876 31.300781-33.335938 39.894531-55.121094-3.71875-3.570313-8.09375-6.507813-12.363281-9.328125zm0 0" fill="#34b5e1"/><path d="m62.425781 267.105469c-4.273437 2.820312-8.648437 5.757812-12.367187 9.328125 8.597656 21.785156 21.914062 40.199218 39.894531 55.121094 4.617187-2.46875 8.742187-6.023438 11.945313-10.609376 6.019531-8.613281 13.132812-15.839843 21.246093-22.292968 8.972657-7.136719 19.230469-11.605469 29.425781-16.621094l-15.867187-40.769531c-26.253906 2.609375-52.222656 11.277343-74.277344 25.84375zm0 0" fill="#34b5e1"/><path d="m108.4375 176.097656-59.382812-12.332031c-2.003907-.410156-4.09375-.636719-6.214844-.6875-2.957032 14.984375-4.484375 30.386719-4.484375 46.035156 0 7.894531.394531 15.519531 1.164062 22.882813 3.121094.226562 6.320313.039062 9.535157-.628906l59.382812-12.332032c8.28125-1.730468 15.179688-8.199218 17.011719-17.007812 2.460937-11.859375-5.152344-23.46875-17.011719-25.929688zm0 0" fill="#34b5e1"/><path d="m101.894531 74.179688c-3.363281-4.769532-7.738281-8.351563-12.613281-10.746094-14.488281 17.917968-26.09375 37.816406-34.53125 59.082031 25.71875 18.359375 54.992188 29.503906 86.671875 31.777344l1.792969-45.480469c-16.507813-8.460938-30.5625-19.386719-41.320313-34.632812zm0 0" fill="#34b5e1"/><path d="m256.003906 7.5c-106.398437 0-192.648437 90.265625-192.648437 201.613281 0 111.34375 86.253906 142.886719 192.648437 142.886719 106.394532 0 192.644532-31.542969 192.644532-142.886719 0-111.347656-86.25-201.613281-192.644532-201.613281zm0 0" fill="#ffc9d3"/><path d="m93.355469 209.113281c0-106.066406 78.261719-193 177.648437-201.007812-4.953125-.398438-9.953125-.605469-15-.605469-106.398437 0-192.648437 90.265625-192.648437 201.613281 0 111.34375 86.253906 142.886719 192.648437 142.886719 5.046875 0 10.046875-.070312 15-.21875-99.386718-2.953125-177.648437-36.605469-177.648437-142.667969zm0 0" fill="#ff9db0"/><path d="m177.050781 240.921875h-15.152343c-4.144532 0-7.5 3.359375-7.5 7.5s3.355468 7.5 7.5 7.5h15.152343c4.140625 0 7.5-3.359375 7.5-7.5s-3.359375-7.5-7.5-7.5zm0 0" fill="#ff889e"/><path d="m350.109375 240.921875h-15.152344c-4.144531 0-7.5 3.359375-7.5 7.5s3.355469 7.5 7.5 7.5h15.152344c4.140625 0 7.5-3.359375 7.5-7.5s-3.359375-7.5-7.5-7.5zm0 0" fill="#ff889e"/><path d="m273.832031 247.964844c-1.460937 1.671875-3.683593 2.628906-6.09375 2.628906-2.410156 0-4.632812-.957031-6.09375-2.628906-1.410156-1.613282-3.503906-2.554688-5.644531-2.554688-2.132812 0-4.246094.949219-5.648438 2.554688-1.460937 1.671875-3.683593 2.628906-6.09375 2.628906-2.410156 0-4.632812-.957031-6.09375-2.628906-2.726562-3.117188-7.464843-3.4375-10.582031-.710938-3.117187 2.726563-3.4375 7.464844-.710937 10.582032 4.308594 4.929687 10.648437 7.757812 17.386718 7.757812 4.199219 0 8.246094-1.097656 11.738282-3.121094 3.496094 2.023438 7.539062 3.121094 11.742187 3.121094 6.738281 0 13.078125-2.828125 17.386719-7.757812 2.726562-3.117188 2.40625-7.855469-.710938-10.582032-3.117187-2.722656-7.855468-2.40625-10.582031.710938zm0 0"/><path d="m171.589844 216.753906v12.824219c0 4.140625 3.359375 7.5 7.5 7.5s7.5-3.359375 7.5-7.5v-12.824219c0-4.140625-3.359375-7.5-7.5-7.5s-7.5 3.359375-7.5 7.5zm0 0"/><path d="m340.40625 229.578125v-12.824219c0-4.140625-3.359375-7.5-7.5-7.5s-7.5 3.359375-7.5 7.5v12.824219c0 4.140625 3.359375 7.5 7.5 7.5s7.5-3.359375 7.5-7.5zm0 0"/><path d="m42 239.597656c2.863281 0 5.75-.300781 8.578125-.886718l7.253906-1.507813c1.078125 7.332031 2.609375 14.335937 4.574219 21.023437-1.40625.863282-2.785156 1.738282-4.121094 2.621094-6.421875 4.242188-13.703125 9.050782-18.867187 16.441406-6.40625 9.164063-8.859375 20.277344-6.90625 31.285157 1.953125 11.011719 8.074219 20.601562 17.242187 27.003906 7.066406 4.941406 15.347656 7.550781 23.949219 7.550781 13.675781 0 26.515625-6.6875 34.339844-17.886718.277343-.394532.566406-.792969.851562-1.1875 2.234375 1.59375 4.53125 3.132812 6.90625 4.617187 33.167969 20.746094 79.027344 30.832031 140.195313 30.832031 36.078125 0 67.570312-3.675781 93.601562-10.925781 3.992188-1.109375 6.324219-5.246094 5.214844-9.238281-1.113281-3.988282-5.25-6.324219-9.238281-5.210938-24.722657 6.882813-54.859375 10.375-89.578125 10.375-57.460938 0-101.957032-9.605468-132.242188-28.550781-30.171875-18.867187-50.429687-52.363281-52-88.082031-.007812-.132813-.007812-.265625-.023437-.398438-3.761719-38.363281 3.925781-77.355468 21.796875-111.5 12.5625-23.992187 30.09375-45.28125 50.96875-61.820312 3.25-2.574219 3.796875-7.289063 1.222656-10.539063-2.570312-3.246093-7.289062-3.792969-10.535156-1.21875-10.023438 7.941407-19.320313 16.90625-27.757813 26.675781-7.792969-10.492187-20.339843-16.742187-33.785156-16.742187-13.660156 0-25.976563 6.183594-33.792969 16.957031-13.554687 18.683594-9.382812 44.910156 9.296875 58.464844 5.792969 4.203125 11.867188 8.097656 18.109375 11.621094-2.164062 6.363281-4.023437 12.820312-5.574218 19.359375l-11.136719-2.3125c-5.609375-1.140625-11.546875-1.140625-17.058594.003906-22.691406 4.714844-37.3125 27.003906-32.601563 49.691406 4.03125 19.398438 21.320313 33.480469 41.117188 33.484375zm55.191406 75.042969c-9.101562 12.347656-25.207031 18.175781-38.847656 8.644531-5.878906-4.109375-9.808594-10.265625-11.0625-17.328125-2.71875-15.335937 7.648438-24.917969 19.269531-32.59375.328125-.214843.65625-.429687.988281-.644531 4.808594 11.335938 11.261719 22.148438 19.578126 31.265625.75.824219 10.171874 10.523437 10.074218 10.65625zm-39.234375-199.035156c-11.988281-8.695313-14.664062-25.527344-5.96875-37.515625 4.964844-6.839844 12.855469-10.761719 21.65625-10.761719 8.914063 0 17.183594 4.175781 22.121094 11.175781.625.886719 1.265625 1.765625 1.925781 2.640625-3.085937 4.164063-6 8.453125-8.765625 12.832031-5.203125 8.21875-9.835937 16.796876-13.863281 25.652344-.835938 1.839844-1.644531 3.683594-2.425781 5.539063-5.046875-2.9375-9.964844-6.136719-14.679688-9.5625zm-21.421875 55.5c1.757813-.363281 3.589844-.546875 5.453125-.546875 5.589844 0 11.289063 1.742187 16.746094 2.875-1.195313 7.304687-2.019531 14.699218-2.46875 22.175781 0 .023437-.003906.046875-.003906.070313-.550781 8.824218-.5625 17.703124 0 26.53125-4.675781.96875-9.460938 2.386718-14.265625 2.386718-12.722656-.003906-23.835938-9.058594-26.425782-21.535156-3.027343-14.589844 6.375-28.925781 20.964844-31.957031zm0 0"/><path d="m167.976562 38.296875c26.851563-15.242187 57.289063-23.296875 88.019532-23.296875 89.296875 0 164.027344 66.617188 181.359375 154.9375 5.746093 29.289062 5.960937 60.824219-3.789063 89.296875-10.285156 30.035156-33.152344 52.515625-61.757812 65.484375-3.773438 1.710938-5.445313 6.152344-3.734375 9.925781 1.253906 2.769531 3.980469 4.40625 6.835937 4.40625 1.035156 0 2.085938-.214843 3.089844-.671875 9.167969-4.152344 17.519531-8.945312 25.085938-14.34375.292968.402344.582031.800782.867187 1.207032 7.828125 11.199218 20.664063 17.886718 34.34375 17.886718 8.597656 0 16.878906-2.609375 23.945313-7.550781 18.917968-13.21875 23.558593-39.367187 10.335937-58.289063-5.164063-7.394531-12.445313-12.203124-18.871094-16.441406-1.332031-.882812-2.710937-1.753906-4.109375-2.617187 1.964844-6.683594 3.496094-13.691407 4.578125-21.023438l7.242188 1.503907c2.828125.585937 5.714843.886718 8.582031.886718 19.789062 0 37.078125-14.085937 41.109375-33.484375 2.28125-10.992187.148437-22.214843-6.007813-31.597656-9.382812-14.300781-26.953124-21.492187-43.683593-18.09375l-11.160157 2.316406c-1.5625-6.574219-3.421874-13.027343-5.566406-19.34375 6.261719-3.527343 12.347656-7.429687 18.15625-11.644531 9.050782-6.566406 15.003906-16.265625 16.757813-27.308594 1.757812-11.042968-.890625-22.105468-7.457031-31.15625-7.820313-10.777344-20.136719-16.957031-33.796876-16.957031-13.460937 0-26.023437 6.265625-33.816406 16.785156-36.652344-42.414062-89.664062-69.113281-148.539062-69.113281-33.324219 0-66.320313 8.730469-95.421875 25.253906-3.601563 2.042969-4.867188 6.621094-2.820313 10.222656 2.046875 3.605469 6.625 4.867188 10.222656 2.820313zm248.257813 40.207031c4.9375-7 13.207031-11.175781 22.121094-11.175781 8.796875 0 16.6875 3.921875 21.652343 10.761719 4.214844 5.808594 5.914063 12.910156 4.785157 19.996094-1.125 7.082031-4.945313 13.304687-10.75 17.519531-4.71875 3.425781-9.632813 6.625-14.683594 9.5625-6.582031-15.683594-14.980469-30.441407-25.054687-44.023438.660156-.875 1.304687-1.753906 1.929687-2.640625zm28.222656 194.214844c.332031.214844.660157.429688.988281.644531 5.5625 3.675781 11.3125 7.472657 14.839844 12.519531 8.484375 12.140626 5.507813 28.917969-6.632812 37.402344-4.535156 3.167969-9.847656 4.84375-15.355469 4.84375-8.78125 0-17.023437-4.289062-22.046875-11.476562-.472656-.675782-.953125-1.34375-1.445312-2.011719.273437-.25.902343-.84375.953124-.886719 10.5-9.703125 19.179688-21.402344 25.546876-34.199218 1.113281-2.234376 2.167968-4.511719 3.152343-6.835938zm8.777344-99.277344s11.203125-2.328125 11.203125-2.328125c10.789062-2.1875 22.082031 2.417969 28.125 11.628907 3.957031 6.035156 5.332031 13.25 3.863281 20.320312-2.59375 12.476562-13.703125 21.535156-26.425781 21.535156-1.84375 0-3.703125-.191406-5.53125-.574218l-8.734375-1.8125c.011719-.179688.015625-.359376.027344-.539063.960937-16.003906.085937-32.335937-2.527344-48.230469zm0 0"/></svg>